<svg preserveAspectRatio="none" overflow="visible" style="display: block;" width="107.484" height="24.0381" viewBox="0 0 107.484 24.0381" fill="none" xmlns="http://www.w3.org/2000/svg">
<g id="vizzuality. 2">
<path id="vizzuality." fill-rule="evenodd" clip-rule="evenodd" d="M15.8784 3.47324C14.8485 3.47324 14.014 2.69552 14.014 1.74104C14.014 0.777723 14.8485 0 15.8784 0C16.8993 0 17.7338 0.777723 17.7338 1.74104C17.7338 2.69552 16.8993 3.47324 15.8784 3.47324ZM8.40733 18.9741L13.2635 5.39927H9.84555L6.70278 15.4832H6.56074L3.42685 5.39927H0L4.85619 18.9741H8.40733ZM14.2616 5.39927V18.9741H17.4754V5.39927H14.2616ZM19.3809 16.9414V18.9741H30.5759V16.3227H23.6512V16.2079L30.3451 7.5822V5.39927H19.6117V8.0506H26.4122V8.16549L19.3809 16.9414ZM32.2042 18.9741V16.9414L39.2355 8.16549V8.0506H32.435V5.39927H43.1684V7.5822L36.4745 16.2079V16.3227H43.3992V18.9741H32.2042ZM53.8978 5.39927V13.2649C53.8978 15.3329 52.4152 16.3581 50.9948 16.3581C49.45 16.3581 48.4202 15.2711 48.4202 13.5477V5.39927H45.2064V14.0426C45.2064 17.3037 47.0707 19.1508 49.7519 19.1508C51.7938 19.1508 53.232 18.0815 53.8534 16.5614H53.9955V18.9741H57.1116V5.39927H53.8978ZM63.1181 19.248C60.5169 19.248 58.5549 17.834 58.5549 15.165C58.5549 12.1071 61.0851 11.3206 63.7307 11.0378C63.8722 11.0227 64.0088 11.0083 64.1405 10.9945C66.2471 10.7732 67.1043 10.6832 67.1043 9.81816V9.76513C67.1043 8.43063 66.2875 7.67058 64.7961 7.67058C63.2247 7.67058 62.3191 8.46598 61.9995 9.39394L58.9988 8.96973C59.709 6.49516 61.9107 5.22252 64.7783 5.22252C67.3795 5.22252 70.3181 6.30073 70.3181 9.88886V18.9741H67.2286V17.1093H67.1221C66.5361 18.2494 65.2577 19.248 63.1181 19.248ZM67.1119 14.1057C67.1119 15.617 65.8867 16.8985 63.9513 16.8985C62.6108 16.8985 61.652 16.2887 61.652 15.1132C61.652 13.8848 62.7262 13.3722 64.1644 13.1689L64.3074 13.1496C65.1855 13.0309 66.717 12.8239 67.1119 12.5061V14.1057ZM75.5509 0.874982V18.9747H72.3371V0.874982H75.5509ZM77.6324 5.39927V18.9741H80.8462V5.39927H77.6324ZM79.2477 3.47324C78.2179 3.47324 77.3834 2.69552 77.3834 1.74104C77.3834 0.777723 78.2179 0 79.2477 0C80.2687 0 81.1032 0.777723 81.1032 1.74104C81.1032 2.69552 80.2687 3.47324 79.2477 3.47324ZM89.7365 7.87416V5.39959H87.0465V2.14729H83.8327V5.39959H81.8973V7.87416H83.8327V15.4216C83.8149 17.9757 85.6793 19.2307 88.0941 19.16C89.0085 19.1335 89.6388 18.9567 89.985 18.8418L89.4435 16.3407C89.2659 16.3849 88.9019 16.4645 88.5024 16.4645C87.6946 16.4645 87.0465 16.1817 87.0465 14.8913V7.87416H89.7365ZM93.2043 24.0381C92.3254 24.0381 91.5441 23.879 91.1091 23.6934L91.8549 21.21C93.2576 21.6077 94.1809 21.4928 94.7934 19.9904L95.0686 19.2569L90.1237 5.39927H93.5328L96.6755 15.6511H96.8176L99.9692 5.39927L103.405 5.41695L97.9273 20.6179C97.1549 22.7478 95.7079 24.0381 93.2043 24.0381ZM103.578 17.2248C103.569 18.303 104.448 19.1691 105.531 19.1691C106.579 19.1691 107.476 18.303 107.484 17.2248C107.476 16.1642 106.579 15.2981 105.531 15.2981C104.448 15.2981 103.569 16.1642 103.578 17.2248Z" fill="#E4D2BA"/>
</g>
</svg>
